<mxfile host="app.diagrams.net" modified="2023-06-02T15:10:04.347Z" agent="Mozilla/5.0 (X11; Ubuntu; Linux x86_64; rv:109.0) Gecko/20100101 Firefox/113.0" etag="TJG1KUhCH9Wh9sWc8KlN" version="21.3.7" type="device">
  <diagram name="Page-1" id="aXk8GVEg9t4zyCOfKGiH">
    <mxGraphModel dx="1434" dy="822" grid="1" gridSize="10" guides="1" tooltips="1" connect="1" arrows="1" fold="1" page="1" pageScale="1" pageWidth="600" pageHeight="600" math="0" shadow="0">
      <root>
        <mxCell id="0" />
        <mxCell id="1" parent="0" />
        <mxCell id="NrmSEk_4bjy6epXLlfkk-4" value="" style="shape=actor;whiteSpace=wrap;html=1;strokeWidth=3;" parent="1" vertex="1">
          <mxGeometry x="440" y="40" width="120" height="180" as="geometry" />
        </mxCell>
        <mxCell id="NrmSEk_4bjy6epXLlfkk-5" style="edgeStyle=orthogonalEdgeStyle;orthogonalLoop=1;jettySize=auto;html=1;exitX=0.9;exitY=0.5;exitDx=0;exitDy=0;exitPerimeter=0;strokeWidth=5;rounded=0;entryX=0.1;entryY=0.5;entryDx=0;entryDy=0;entryPerimeter=0;" parent="1" source="NrmSEk_4bjy6epXLlfkk-1" target="NrmSEk_4bjy6epXLlfkk-4" edge="1">
          <mxGeometry relative="1" as="geometry">
            <mxPoint x="400" y="190" as="targetPoint" />
            <Array as="points" />
          </mxGeometry>
        </mxCell>
        <mxCell id="NrmSEk_4bjy6epXLlfkk-1" value="" style="shape=actor;whiteSpace=wrap;html=1;strokeWidth=2;dashed=1;strokeColor=#B3B3B3;" parent="1" vertex="1">
          <mxGeometry x="240" y="40" width="120" height="180" as="geometry" />
        </mxCell>
        <mxCell id="NrmSEk_4bjy6epXLlfkk-2" value="&lt;font style=&quot;font-size: 16px;&quot;&gt;Person 1&lt;/font&gt;" style="text;html=1;strokeColor=none;fillColor=none;align=center;verticalAlign=middle;whiteSpace=wrap;rounded=0;" parent="1" vertex="1">
          <mxGeometry x="450" y="120" width="100" height="30" as="geometry" />
        </mxCell>
        <mxCell id="NrmSEk_4bjy6epXLlfkk-8" value="" style="shape=actor;whiteSpace=wrap;html=1;strokeWidth=2;dashed=1;strokeColor=#B3B3B3;" parent="1" vertex="1">
          <mxGeometry x="440" y="380" width="120" height="180" as="geometry" />
        </mxCell>
        <mxCell id="NrmSEk_4bjy6epXLlfkk-20" value="&lt;pre&gt;&lt;font size=&quot;1&quot;&gt;&lt;b style=&quot;font-size: 47px;&quot;&gt;t = 2&lt;br&gt;&lt;/b&gt;&lt;/font&gt;&lt;/pre&gt;" style="text;html=1;strokeColor=none;fillColor=none;align=center;verticalAlign=middle;whiteSpace=wrap;rounded=0;" parent="1" vertex="1">
          <mxGeometry x="240" y="285" width="120" height="30" as="geometry" />
        </mxCell>
        <mxCell id="NrmSEk_4bjy6epXLlfkk-21" value="" style="shape=actor;whiteSpace=wrap;html=1;strokeWidth=3;" parent="1" vertex="1">
          <mxGeometry x="240" y="380" width="120" height="180" as="geometry" />
        </mxCell>
        <mxCell id="NrmSEk_4bjy6epXLlfkk-22" value="&lt;font style=&quot;font-size: 16px;&quot;&gt;Person 2&lt;br&gt;&lt;/font&gt;" style="text;html=1;strokeColor=none;fillColor=none;align=center;verticalAlign=middle;whiteSpace=wrap;rounded=0;" parent="1" vertex="1">
          <mxGeometry x="250" y="460" width="100" height="30" as="geometry" />
        </mxCell>
        <mxCell id="NrmSEk_4bjy6epXLlfkk-25" style="edgeStyle=orthogonalEdgeStyle;orthogonalLoop=1;jettySize=auto;html=1;exitX=0.1;exitY=0.5;exitDx=0;exitDy=0;exitPerimeter=0;strokeWidth=5;rounded=0;entryX=0.9;entryY=0.5;entryDx=0;entryDy=0;entryPerimeter=0;" parent="1" source="NrmSEk_4bjy6epXLlfkk-8" target="NrmSEk_4bjy6epXLlfkk-21" edge="1">
          <mxGeometry relative="1" as="geometry">
            <mxPoint x="358" y="140" as="sourcePoint" />
            <mxPoint x="390" y="460" as="targetPoint" />
            <Array as="points" />
          </mxGeometry>
        </mxCell>
      </root>
    </mxGraphModel>
  </diagram>
</mxfile>
